<?xml version="1.0" encoding="utf-8" standalone="no"?>
<!DOCTYPE svg PUBLIC "-//W3C//DTD SVG 1.1//EN"
  "http://www.w3.org/Graphics/SVG/1.1/DTD/svg11.dtd">
<svg xmlns:xlink="http://www.w3.org/1999/xlink" width="864pt" height="432pt" viewBox="0 0 864 432" xmlns="http://www.w3.org/2000/svg" version="1.1">
 <metadata>
  <rdf:RDF xmlns:dc="http://purl.org/dc/elements/1.1/" xmlns:cc="http://creativecommons.org/ns#" xmlns:rdf="http://www.w3.org/1999/02/22-rdf-syntax-ns#">
   <cc:Work>
    <dc:type rdf:resource="http://purl.org/dc/dcmitype/StillImage"/>
    <dc:date>2024-12-09T14:23:11.528233</dc:date>
    <dc:format>image/svg+xml</dc:format>
    <dc:creator>
     <cc:Agent>
      <dc:title>Matplotlib v3.9.2, https://matplotlib.org/</dc:title>
     </cc:Agent>
    </dc:creator>
   </cc:Work>
  </rdf:RDF>
 </metadata>
 <defs>
  <style type="text/css">*{stroke-linejoin: round; stroke-linecap: butt}</style>
 </defs>
 <g id="figure_1">
  <g id="patch_1">
   <path d="M 0 432 
L 864 432 
L 864 0 
L 0 0 
z
" style="fill: #ffffff"/>
  </g>
  <g id="axes_1">
   <g id="matplotlib.axis_1"/>
   <g id="matplotlib.axis_2"/>
   <g id="patch_2">
    <path d="M 381.927273 218.16 
C 381.927273 190.169001 372.273984 163.016567 354.604499 141.307459 
C 336.935015 119.598351 312.308034 104.63331 284.900028 98.950244 
C 257.492021 93.267179 228.94519 97.206601 204.100768 110.100426 
C 179.256345 122.994252 159.602932 144.069924 148.473533 169.753237 
L 260.181818 218.16 
z
" style="fill: #dd8452; stroke: #ffffff; stroke-linejoin: miter"/>
   </g>
   <g id="patch_3">
    <path d="M 148.473533 169.753237 
C 141.283103 186.346592 137.879406 204.335478 138.510524 222.408758 
C 139.141643 240.482038 143.791861 258.189681 152.122244 274.241051 
C 160.452628 290.29242 172.255747 304.287832 186.67132 315.207218 
C 201.086894 326.126603 217.755971 333.698067 235.463609 337.369756 
C 253.171247 341.041444 271.476522 340.721932 289.045236 336.434506 
C 306.613951 332.147081 323.008639 323.9985 337.034359 312.582681 
C 351.060079 301.166862 362.367587 286.768062 370.132724 270.435751 
C 377.897861 254.103439 381.927273 236.244296 381.927273 218.16 
L 260.181818 218.16 
z
" style="fill: #4c72b0; stroke: #ffffff; stroke-linejoin: miter"/>
   </g>
   <g id="text_1">
    <!-- No -->
    <g style="fill: #262626" transform="translate(287.371849 90.648488) scale(0.14 -0.14)">
     <defs>
      <path id="ArialMT-4e" d="M 488 0 
L 488 4581 
L 1109 4581 
L 3516 984 
L 3516 4581 
L 4097 4581 
L 4097 0 
L 3475 0 
L 1069 3600 
L 1069 0 
L 488 0 
z
" transform="scale(0.015625)"/>
      <path id="ArialMT-6f" d="M 213 1659 
Q 213 2581 725 3025 
Q 1153 3394 1769 3394 
Q 2453 3394 2887 2945 
Q 3322 2497 3322 1706 
Q 3322 1066 3130 698 
Q 2938 331 2570 128 
Q 2203 -75 1769 -75 
Q 1072 -75 642 372 
Q 213 819 213 1659 
z
M 791 1659 
Q 791 1022 1069 705 
Q 1347 388 1769 388 
Q 2188 388 2466 706 
Q 2744 1025 2744 1678 
Q 2744 2294 2464 2611 
Q 2184 2928 1769 2928 
Q 1347 2928 1069 2612 
Q 791 2297 791 1659 
z
" transform="scale(0.015625)"/>
     </defs>
     <use xlink:href="#ArialMT-4e"/>
     <use xlink:href="#ArialMT-6f" x="72.216797"/>
    </g>
   </g>
   <g id="text_2">
    <!-- 43.5% -->
    <g style="fill: #262626" transform="translate(255.165556 150.253365) scale(0.14 -0.14)">
     <defs>
      <path id="ArialMT-34" d="M 2069 0 
L 2069 1097 
L 81 1097 
L 81 1613 
L 2172 4581 
L 2631 4581 
L 2631 1613 
L 3250 1613 
L 3250 1097 
L 2631 1097 
L 2631 0 
L 2069 0 
z
M 2069 1613 
L 2069 3678 
L 634 1613 
L 2069 1613 
z
" transform="scale(0.015625)"/>
      <path id="ArialMT-33" d="M 269 1209 
L 831 1284 
Q 928 806 1161 595 
Q 1394 384 1728 384 
Q 2125 384 2398 659 
Q 2672 934 2672 1341 
Q 2672 1728 2419 1979 
Q 2166 2231 1775 2231 
Q 1616 2231 1378 2169 
L 1441 2663 
Q 1497 2656 1531 2656 
Q 1891 2656 2178 2843 
Q 2466 3031 2466 3422 
Q 2466 3731 2256 3934 
Q 2047 4138 1716 4138 
Q 1388 4138 1169 3931 
Q 950 3725 888 3313 
L 325 3413 
Q 428 3978 793 4289 
Q 1159 4600 1703 4600 
Q 2078 4600 2393 4439 
Q 2709 4278 2876 4000 
Q 3044 3722 3044 3409 
Q 3044 3113 2884 2869 
Q 2725 2625 2413 2481 
Q 2819 2388 3044 2092 
Q 3269 1797 3269 1353 
Q 3269 753 2831 336 
Q 2394 -81 1725 -81 
Q 1122 -81 723 278 
Q 325 638 269 1209 
z
" transform="scale(0.015625)"/>
      <path id="ArialMT-2e" d="M 581 0 
L 581 641 
L 1222 641 
L 1222 0 
L 581 0 
z
" transform="scale(0.015625)"/>
      <path id="ArialMT-35" d="M 266 1200 
L 856 1250 
Q 922 819 1161 601 
Q 1400 384 1738 384 
Q 2144 384 2425 690 
Q 2706 997 2706 1503 
Q 2706 1984 2436 2262 
Q 2166 2541 1728 2541 
Q 1456 2541 1237 2417 
Q 1019 2294 894 2097 
L 366 2166 
L 809 4519 
L 3088 4519 
L 3088 3981 
L 1259 3981 
L 1013 2750 
Q 1425 3038 1878 3038 
Q 2478 3038 2890 2622 
Q 3303 2206 3303 1553 
Q 3303 931 2941 478 
Q 2500 -78 1738 -78 
Q 1113 -78 717 272 
Q 322 622 266 1200 
z
" transform="scale(0.015625)"/>
      <path id="ArialMT-25" d="M 372 3481 
Q 372 3972 619 4315 
Q 866 4659 1334 4659 
Q 1766 4659 2048 4351 
Q 2331 4044 2331 3447 
Q 2331 2866 2045 2552 
Q 1759 2238 1341 2238 
Q 925 2238 648 2547 
Q 372 2856 372 3481 
z
M 1350 4272 
Q 1141 4272 1002 4090 
Q 863 3909 863 3425 
Q 863 2984 1003 2804 
Q 1144 2625 1350 2625 
Q 1563 2625 1702 2806 
Q 1841 2988 1841 3469 
Q 1841 3913 1700 4092 
Q 1559 4272 1350 4272 
z
M 1353 -169 
L 3859 4659 
L 4316 4659 
L 1819 -169 
L 1353 -169 
z
M 3334 1075 
Q 3334 1569 3581 1911 
Q 3828 2253 4300 2253 
Q 4731 2253 5014 1945 
Q 5297 1638 5297 1041 
Q 5297 459 5011 145 
Q 4725 -169 4303 -169 
Q 3888 -169 3611 142 
Q 3334 453 3334 1075 
z
M 4316 1866 
Q 4103 1866 3964 1684 
Q 3825 1503 3825 1019 
Q 3825 581 3965 400 
Q 4106 219 4313 219 
Q 4528 219 4667 400 
Q 4806 581 4806 1063 
Q 4806 1506 4665 1686 
Q 4525 1866 4316 1866 
z
" transform="scale(0.015625)"/>
     </defs>
     <use xlink:href="#ArialMT-34"/>
     <use xlink:href="#ArialMT-33" x="55.615234"/>
     <use xlink:href="#ArialMT-2e" x="111.230469"/>
     <use xlink:href="#ArialMT-35" x="139.013672"/>
     <use xlink:href="#ArialMT-25" x="194.628906"/>
    </g>
   </g>
   <g id="text_3">
    <!-- Yes -->
    <g style="fill: #262626" transform="translate(210.145538 352.90995) scale(0.14 -0.14)">
     <defs>
      <path id="ArialMT-59" d="M 1784 0 
L 1784 1941 
L 19 4581 
L 756 4581 
L 1659 3200 
Q 1909 2813 2125 2425 
Q 2331 2784 2625 3234 
L 3513 4581 
L 4219 4581 
L 2391 1941 
L 2391 0 
L 1784 0 
z
" transform="scale(0.015625)"/>
      <path id="ArialMT-65" d="M 2694 1069 
L 3275 997 
Q 3138 488 2766 206 
Q 2394 -75 1816 -75 
Q 1088 -75 661 373 
Q 234 822 234 1631 
Q 234 2469 665 2931 
Q 1097 3394 1784 3394 
Q 2450 3394 2872 2941 
Q 3294 2488 3294 1666 
Q 3294 1616 3291 1516 
L 816 1516 
Q 847 969 1125 678 
Q 1403 388 1819 388 
Q 2128 388 2347 550 
Q 2566 713 2694 1069 
z
M 847 1978 
L 2700 1978 
Q 2663 2397 2488 2606 
Q 2219 2931 1791 2931 
Q 1403 2931 1139 2672 
Q 875 2413 847 1978 
z
" transform="scale(0.015625)"/>
      <path id="ArialMT-73" d="M 197 991 
L 753 1078 
Q 800 744 1014 566 
Q 1228 388 1613 388 
Q 2000 388 2187 545 
Q 2375 703 2375 916 
Q 2375 1106 2209 1216 
Q 2094 1291 1634 1406 
Q 1016 1563 777 1677 
Q 538 1791 414 1992 
Q 291 2194 291 2438 
Q 291 2659 392 2848 
Q 494 3038 669 3163 
Q 800 3259 1026 3326 
Q 1253 3394 1513 3394 
Q 1903 3394 2198 3281 
Q 2494 3169 2634 2976 
Q 2775 2784 2828 2463 
L 2278 2388 
Q 2241 2644 2061 2787 
Q 1881 2931 1553 2931 
Q 1166 2931 1000 2803 
Q 834 2675 834 2503 
Q 834 2394 903 2306 
Q 972 2216 1119 2156 
Q 1203 2125 1616 2013 
Q 2213 1853 2448 1751 
Q 2684 1650 2818 1456 
Q 2953 1263 2953 975 
Q 2953 694 2789 445 
Q 2625 197 2315 61 
Q 2006 -75 1616 -75 
Q 969 -75 630 194 
Q 291 463 197 991 
z
" transform="scale(0.015625)"/>
     </defs>
     <use xlink:href="#ArialMT-59"/>
     <use xlink:href="#ArialMT-65" x="57.574219"/>
     <use xlink:href="#ArialMT-73" x="113.189453"/>
    </g>
   </g>
   <g id="text_4">
    <!-- 56.5% -->
    <g style="fill: #262626" transform="translate(225.503705 293.305072) scale(0.14 -0.14)">
     <defs>
      <path id="ArialMT-36" d="M 3184 3459 
L 2625 3416 
Q 2550 3747 2413 3897 
Q 2184 4138 1850 4138 
Q 1581 4138 1378 3988 
Q 1113 3794 959 3422 
Q 806 3050 800 2363 
Q 1003 2672 1297 2822 
Q 1591 2972 1913 2972 
Q 2475 2972 2870 2558 
Q 3266 2144 3266 1488 
Q 3266 1056 3080 686 
Q 2894 316 2569 119 
Q 2244 -78 1831 -78 
Q 1128 -78 684 439 
Q 241 956 241 2144 
Q 241 3472 731 4075 
Q 1159 4600 1884 4600 
Q 2425 4600 2770 4297 
Q 3116 3994 3184 3459 
z
M 888 1484 
Q 888 1194 1011 928 
Q 1134 663 1356 523 
Q 1578 384 1822 384 
Q 2178 384 2434 671 
Q 2691 959 2691 1453 
Q 2691 1928 2437 2201 
Q 2184 2475 1800 2475 
Q 1419 2475 1153 2201 
Q 888 1928 888 1484 
z
" transform="scale(0.015625)"/>
     </defs>
     <use xlink:href="#ArialMT-35"/>
     <use xlink:href="#ArialMT-36" x="55.615234"/>
     <use xlink:href="#ArialMT-2e" x="111.230469"/>
     <use xlink:href="#ArialMT-35" x="139.013672"/>
     <use xlink:href="#ArialMT-25" x="194.628906"/>
    </g>
   </g>
   <g id="text_5">
    <!-- produce_yes_no - Not Produce -->
    <g style="fill: #262626" transform="translate(177.137131 59.978182) scale(0.12 -0.12)">
     <defs>
      <path id="ArialMT-70" d="M 422 -1272 
L 422 3319 
L 934 3319 
L 934 2888 
Q 1116 3141 1344 3267 
Q 1572 3394 1897 3394 
Q 2322 3394 2647 3175 
Q 2972 2956 3137 2557 
Q 3303 2159 3303 1684 
Q 3303 1175 3120 767 
Q 2938 359 2589 142 
Q 2241 -75 1856 -75 
Q 1575 -75 1351 44 
Q 1128 163 984 344 
L 984 -1272 
L 422 -1272 
z
M 931 1641 
Q 931 1000 1190 694 
Q 1450 388 1819 388 
Q 2194 388 2461 705 
Q 2728 1022 2728 1688 
Q 2728 2322 2467 2637 
Q 2206 2953 1844 2953 
Q 1484 2953 1207 2617 
Q 931 2281 931 1641 
z
" transform="scale(0.015625)"/>
      <path id="ArialMT-72" d="M 416 0 
L 416 3319 
L 922 3319 
L 922 2816 
Q 1116 3169 1280 3281 
Q 1444 3394 1641 3394 
Q 1925 3394 2219 3213 
L 2025 2691 
Q 1819 2813 1613 2813 
Q 1428 2813 1281 2702 
Q 1134 2591 1072 2394 
Q 978 2094 978 1738 
L 978 0 
L 416 0 
z
" transform="scale(0.015625)"/>
      <path id="ArialMT-64" d="M 2575 0 
L 2575 419 
Q 2259 -75 1647 -75 
Q 1250 -75 917 144 
Q 584 363 401 755 
Q 219 1147 219 1656 
Q 219 2153 384 2558 
Q 550 2963 881 3178 
Q 1213 3394 1622 3394 
Q 1922 3394 2156 3267 
Q 2391 3141 2538 2938 
L 2538 4581 
L 3097 4581 
L 3097 0 
L 2575 0 
z
M 797 1656 
Q 797 1019 1065 703 
Q 1334 388 1700 388 
Q 2069 388 2326 689 
Q 2584 991 2584 1609 
Q 2584 2291 2321 2609 
Q 2059 2928 1675 2928 
Q 1300 2928 1048 2622 
Q 797 2316 797 1656 
z
" transform="scale(0.015625)"/>
      <path id="ArialMT-75" d="M 2597 0 
L 2597 488 
Q 2209 -75 1544 -75 
Q 1250 -75 995 37 
Q 741 150 617 320 
Q 494 491 444 738 
Q 409 903 409 1263 
L 409 3319 
L 972 3319 
L 972 1478 
Q 972 1038 1006 884 
Q 1059 663 1231 536 
Q 1403 409 1656 409 
Q 1909 409 2131 539 
Q 2353 669 2445 892 
Q 2538 1116 2538 1541 
L 2538 3319 
L 3100 3319 
L 3100 0 
L 2597 0 
z
" transform="scale(0.015625)"/>
      <path id="ArialMT-63" d="M 2588 1216 
L 3141 1144 
Q 3050 572 2676 248 
Q 2303 -75 1759 -75 
Q 1078 -75 664 370 
Q 250 816 250 1647 
Q 250 2184 428 2587 
Q 606 2991 970 3192 
Q 1334 3394 1763 3394 
Q 2303 3394 2647 3120 
Q 2991 2847 3088 2344 
L 2541 2259 
Q 2463 2594 2264 2762 
Q 2066 2931 1784 2931 
Q 1359 2931 1093 2626 
Q 828 2322 828 1663 
Q 828 994 1084 691 
Q 1341 388 1753 388 
Q 2084 388 2306 591 
Q 2528 794 2588 1216 
z
" transform="scale(0.015625)"/>
      <path id="ArialMT-5f" d="M -97 -1272 
L -97 -866 
L 3631 -866 
L 3631 -1272 
L -97 -1272 
z
" transform="scale(0.015625)"/>
      <path id="ArialMT-79" d="M 397 -1278 
L 334 -750 
Q 519 -800 656 -800 
Q 844 -800 956 -737 
Q 1069 -675 1141 -563 
Q 1194 -478 1313 -144 
Q 1328 -97 1363 -6 
L 103 3319 
L 709 3319 
L 1400 1397 
Q 1534 1031 1641 628 
Q 1738 1016 1872 1384 
L 2581 3319 
L 3144 3319 
L 1881 -56 
Q 1678 -603 1566 -809 
Q 1416 -1088 1222 -1217 
Q 1028 -1347 759 -1347 
Q 597 -1347 397 -1278 
z
" transform="scale(0.015625)"/>
      <path id="ArialMT-6e" d="M 422 0 
L 422 3319 
L 928 3319 
L 928 2847 
Q 1294 3394 1984 3394 
Q 2284 3394 2536 3286 
Q 2788 3178 2913 3003 
Q 3038 2828 3088 2588 
Q 3119 2431 3119 2041 
L 3119 0 
L 2556 0 
L 2556 2019 
Q 2556 2363 2490 2533 
Q 2425 2703 2258 2804 
Q 2091 2906 1866 2906 
Q 1506 2906 1245 2678 
Q 984 2450 984 1813 
L 984 0 
L 422 0 
z
" transform="scale(0.015625)"/>
      <path id="ArialMT-20" transform="scale(0.015625)"/>
      <path id="ArialMT-2d" d="M 203 1375 
L 203 1941 
L 1931 1941 
L 1931 1375 
L 203 1375 
z
" transform="scale(0.015625)"/>
      <path id="ArialMT-74" d="M 1650 503 
L 1731 6 
Q 1494 -44 1306 -44 
Q 1000 -44 831 53 
Q 663 150 594 308 
Q 525 466 525 972 
L 525 2881 
L 113 2881 
L 113 3319 
L 525 3319 
L 525 4141 
L 1084 4478 
L 1084 3319 
L 1650 3319 
L 1650 2881 
L 1084 2881 
L 1084 941 
Q 1084 700 1114 631 
Q 1144 563 1211 522 
Q 1278 481 1403 481 
Q 1497 481 1650 503 
z
" transform="scale(0.015625)"/>
      <path id="ArialMT-50" d="M 494 0 
L 494 4581 
L 2222 4581 
Q 2678 4581 2919 4538 
Q 3256 4481 3484 4323 
Q 3713 4166 3852 3881 
Q 3991 3597 3991 3256 
Q 3991 2672 3619 2267 
Q 3247 1863 2275 1863 
L 1100 1863 
L 1100 0 
L 494 0 
z
M 1100 2403 
L 2284 2403 
Q 2872 2403 3119 2622 
Q 3366 2841 3366 3238 
Q 3366 3525 3220 3729 
Q 3075 3934 2838 4000 
Q 2684 4041 2272 4041 
L 1100 4041 
L 1100 2403 
z
" transform="scale(0.015625)"/>
     </defs>
     <use xlink:href="#ArialMT-70"/>
     <use xlink:href="#ArialMT-72" x="55.615234"/>
     <use xlink:href="#ArialMT-6f" x="88.916016"/>
     <use xlink:href="#ArialMT-64" x="144.53125"/>
     <use xlink:href="#ArialMT-75" x="200.146484"/>
     <use xlink:href="#ArialMT-63" x="255.761719"/>
     <use xlink:href="#ArialMT-65" x="305.761719"/>
     <use xlink:href="#ArialMT-5f" x="361.376953"/>
     <use xlink:href="#ArialMT-79" x="416.992188"/>
     <use xlink:href="#ArialMT-65" x="466.992188"/>
     <use xlink:href="#ArialMT-73" x="522.607422"/>
     <use xlink:href="#ArialMT-5f" x="572.607422"/>
     <use xlink:href="#ArialMT-6e" x="628.222656"/>
     <use xlink:href="#ArialMT-6f" x="683.837891"/>
     <use xlink:href="#ArialMT-20" x="739.453125"/>
     <use xlink:href="#ArialMT-2d" x="767.236328"/>
     <use xlink:href="#ArialMT-20" x="800.537109"/>
     <use xlink:href="#ArialMT-4e" x="828.320312"/>
     <use xlink:href="#ArialMT-6f" x="900.537109"/>
     <use xlink:href="#ArialMT-74" x="956.152344"/>
     <use xlink:href="#ArialMT-20" x="983.935547"/>
     <use xlink:href="#ArialMT-50" x="1011.71875"/>
     <use xlink:href="#ArialMT-72" x="1078.417969"/>
     <use xlink:href="#ArialMT-6f" x="1111.71875"/>
     <use xlink:href="#ArialMT-64" x="1167.333984"/>
     <use xlink:href="#ArialMT-75" x="1222.949219"/>
     <use xlink:href="#ArialMT-63" x="1278.564453"/>
     <use xlink:href="#ArialMT-65" x="1328.564453"/>
    </g>
   </g>
  </g>
  <g id="axes_2">
   <g id="matplotlib.axis_3"/>
   <g id="matplotlib.axis_4"/>
   <g id="patch_4">
    <path d="M 747.163636 218.16 
C 747.163636 195.743272 740.972321 173.7561 729.275254 154.633121 
C 717.578186 135.510142 700.823652 119.984237 680.86688 109.774588 
C 660.910108 99.564939 638.515932 95.062826 616.164058 96.766768 
C 593.812184 98.470709 572.359237 106.315403 554.180702 119.432207 
L 625.418182 218.16 
z
" style="fill: #dd8452; stroke: #ffffff; stroke-linejoin: miter"/>
   </g>
   <g id="patch_5">
    <path d="M 554.180702 119.432207 
C 537.275871 131.629963 523.78386 147.967558 515.002278 166.873706 
C 506.220697 185.779853 502.440396 206.628371 504.02495 227.414129 
C 505.609504 248.199888 512.506431 268.234452 524.052412 285.590975 
C 535.598393 302.947498 551.41102 317.051123 569.969494 326.545417 
C 588.527967 336.039711 609.217623 340.610219 630.048608 339.817367 
C 650.879594 339.024514 671.161977 332.894561 688.945075 322.017063 
C 706.728174 311.139564 721.423004 295.874789 731.616272 277.690844 
C 741.80954 259.506899 747.16364 239.006046 747.163636 218.159977 
L 625.418182 218.16 
z
" style="fill: #4c72b0; stroke: #ffffff; stroke-linejoin: miter"/>
   </g>
   <g id="text_6">
    <!-- No -->
    <g style="fill: #262626" transform="translate(686.41175 102.555266) scale(0.14 -0.14)">
     <use xlink:href="#ArialMT-4e"/>
     <use xlink:href="#ArialMT-6f" x="72.216797"/>
    </g>
   </g>
   <g id="text_7">
    <!-- 34.9% -->
    <g style="fill: #262626" transform="translate(638.840213 156.747972) scale(0.14 -0.14)">
     <defs>
      <path id="ArialMT-39" d="M 350 1059 
L 891 1109 
Q 959 728 1153 556 
Q 1347 384 1650 384 
Q 1909 384 2104 503 
Q 2300 622 2425 820 
Q 2550 1019 2634 1356 
Q 2719 1694 2719 2044 
Q 2719 2081 2716 2156 
Q 2547 1888 2255 1720 
Q 1963 1553 1622 1553 
Q 1053 1553 659 1965 
Q 266 2378 266 3053 
Q 266 3750 677 4175 
Q 1088 4600 1706 4600 
Q 2153 4600 2523 4359 
Q 2894 4119 3086 3673 
Q 3278 3228 3278 2384 
Q 3278 1506 3087 986 
Q 2897 466 2520 194 
Q 2144 -78 1638 -78 
Q 1100 -78 759 220 
Q 419 519 350 1059 
z
M 2653 3081 
Q 2653 3566 2395 3850 
Q 2138 4134 1775 4134 
Q 1400 4134 1122 3828 
Q 844 3522 844 3034 
Q 844 2597 1108 2323 
Q 1372 2050 1759 2050 
Q 2150 2050 2401 2323 
Q 2653 2597 2653 3081 
z
" transform="scale(0.015625)"/>
     </defs>
     <use xlink:href="#ArialMT-33"/>
     <use xlink:href="#ArialMT-34" x="55.615234"/>
     <use xlink:href="#ArialMT-2e" x="111.230469"/>
     <use xlink:href="#ArialMT-39" x="139.013672"/>
     <use xlink:href="#ArialMT-25" x="194.628906"/>
    </g>
   </g>
   <g id="text_8">
    <!-- Yes -->
    <g style="fill: #262626" transform="translate(541.578375 341.003178) scale(0.14 -0.14)">
     <use xlink:href="#ArialMT-59"/>
     <use xlink:href="#ArialMT-65" x="57.574219"/>
     <use xlink:href="#ArialMT-73" x="113.189453"/>
    </g>
   </g>
   <g id="text_9">
    <!-- 65.1% -->
    <g style="fill: #262626" transform="translate(572.301781 286.810469) scale(0.14 -0.14)">
     <defs>
      <path id="ArialMT-31" d="M 2384 0 
L 1822 0 
L 1822 3584 
Q 1619 3391 1289 3197 
Q 959 3003 697 2906 
L 697 3450 
Q 1169 3672 1522 3987 
Q 1875 4303 2022 4600 
L 2384 4600 
L 2384 0 
z
" transform="scale(0.015625)"/>
     </defs>
     <use xlink:href="#ArialMT-36"/>
     <use xlink:href="#ArialMT-35" x="55.615234"/>
     <use xlink:href="#ArialMT-2e" x="111.230469"/>
     <use xlink:href="#ArialMT-31" x="139.013672"/>
     <use xlink:href="#ArialMT-25" x="194.628906"/>
    </g>
   </g>
   <g id="text_10">
    <!-- produce_yes_no - Produce -->
    <g style="fill: #262626" transform="translate(553.376932 59.978182) scale(0.12 -0.12)">
     <use xlink:href="#ArialMT-70"/>
     <use xlink:href="#ArialMT-72" x="55.615234"/>
     <use xlink:href="#ArialMT-6f" x="88.916016"/>
     <use xlink:href="#ArialMT-64" x="144.53125"/>
     <use xlink:href="#ArialMT-75" x="200.146484"/>
     <use xlink:href="#ArialMT-63" x="255.761719"/>
     <use xlink:href="#ArialMT-65" x="305.761719"/>
     <use xlink:href="#ArialMT-5f" x="361.376953"/>
     <use xlink:href="#ArialMT-79" x="416.992188"/>
     <use xlink:href="#ArialMT-65" x="466.992188"/>
     <use xlink:href="#ArialMT-73" x="522.607422"/>
     <use xlink:href="#ArialMT-5f" x="572.607422"/>
     <use xlink:href="#ArialMT-6e" x="628.222656"/>
     <use xlink:href="#ArialMT-6f" x="683.837891"/>
     <use xlink:href="#ArialMT-20" x="739.453125"/>
     <use xlink:href="#ArialMT-2d" x="767.236328"/>
     <use xlink:href="#ArialMT-20" x="800.537109"/>
     <use xlink:href="#ArialMT-50" x="828.320312"/>
     <use xlink:href="#ArialMT-72" x="895.019531"/>
     <use xlink:href="#ArialMT-6f" x="928.320312"/>
     <use xlink:href="#ArialMT-64" x="983.935547"/>
     <use xlink:href="#ArialMT-75" x="1039.550781"/>
     <use xlink:href="#ArialMT-63" x="1095.166016"/>
     <use xlink:href="#ArialMT-65" x="1145.166016"/>
    </g>
   </g>
  </g>
  <g id="legend_1">
   <g id="patch_6">
    <path d="M 717.579687 425 
L 854.2 425 
Q 857 425 857 422.2 
L 857 383.993125 
Q 857 381.193125 854.2 381.193125 
L 717.579687 381.193125 
Q 714.779687 381.193125 714.779687 383.993125 
L 714.779687 422.2 
Q 714.779687 425 717.579687 425 
z
" style="fill: #eaeaf2; opacity: 0.8; stroke: #cccccc; stroke-linejoin: miter"/>
   </g>
   <g id="line2d_1">
    <path d="M 720.379687 391.914062 
L 734.379687 391.914062 
L 748.379687 391.914062 
" style="fill: none; stroke: #ffffff; stroke-width: 1.5; stroke-linecap: round"/>
    <defs>
     <path id="m8d231445ee" d="M 0 5 
C 1.326016 5 2.597899 4.473168 3.535534 3.535534 
C 4.473168 2.597899 5 1.326016 5 0 
C 5 -1.326016 4.473168 -2.597899 3.535534 -3.535534 
C 2.597899 -4.473168 1.326016 -5 0 -5 
C -1.326016 -5 -2.597899 -4.473168 -3.535534 -3.535534 
C -4.473168 -2.597899 -5 -1.326016 -5 0 
C -5 1.326016 -4.473168 2.597899 -3.535534 3.535534 
C -2.597899 4.473168 -1.326016 5 0 5 
z
" style="stroke: #ffffff"/>
    </defs>
    <g>
     <use xlink:href="#m8d231445ee" x="734.379687" y="391.914062" style="fill: #dd8452; stroke: #ffffff"/>
    </g>
   </g>
   <g id="text_11">
    <!-- Not Reordered -->
    <g style="fill: #262626" transform="translate(759.579687 396.814062) scale(0.14 -0.14)">
     <defs>
      <path id="ArialMT-52" d="M 503 0 
L 503 4581 
L 2534 4581 
Q 3147 4581 3465 4457 
Q 3784 4334 3975 4021 
Q 4166 3709 4166 3331 
Q 4166 2844 3850 2509 
Q 3534 2175 2875 2084 
Q 3116 1969 3241 1856 
Q 3506 1613 3744 1247 
L 4541 0 
L 3778 0 
L 3172 953 
Q 2906 1366 2734 1584 
Q 2563 1803 2427 1890 
Q 2291 1978 2150 2013 
Q 2047 2034 1813 2034 
L 1109 2034 
L 1109 0 
L 503 0 
z
M 1109 2559 
L 2413 2559 
Q 2828 2559 3062 2645 
Q 3297 2731 3419 2920 
Q 3541 3109 3541 3331 
Q 3541 3656 3305 3865 
Q 3069 4075 2559 4075 
L 1109 4075 
L 1109 2559 
z
" transform="scale(0.015625)"/>
     </defs>
     <use xlink:href="#ArialMT-4e"/>
     <use xlink:href="#ArialMT-6f" x="72.216797"/>
     <use xlink:href="#ArialMT-74" x="127.832031"/>
     <use xlink:href="#ArialMT-20" x="155.615234"/>
     <use xlink:href="#ArialMT-52" x="183.398438"/>
     <use xlink:href="#ArialMT-65" x="255.615234"/>
     <use xlink:href="#ArialMT-6f" x="311.230469"/>
     <use xlink:href="#ArialMT-72" x="366.845703"/>
     <use xlink:href="#ArialMT-64" x="400.146484"/>
     <use xlink:href="#ArialMT-65" x="455.761719"/>
     <use xlink:href="#ArialMT-72" x="511.376953"/>
     <use xlink:href="#ArialMT-65" x="544.677734"/>
     <use xlink:href="#ArialMT-64" x="600.292969"/>
    </g>
   </g>
   <g id="line2d_2">
    <path d="M 720.379687 411.7175 
L 734.379687 411.7175 
L 748.379687 411.7175 
" style="fill: none; stroke: #ffffff; stroke-width: 1.5; stroke-linecap: round"/>
    <defs>
     <path id="m55676723ca" d="M 0 5 
C 1.326016 5 2.597899 4.473168 3.535534 3.535534 
C 4.473168 2.597899 5 1.326016 5 0 
C 5 -1.326016 4.473168 -2.597899 3.535534 -3.535534 
C 2.597899 -4.473168 1.326016 -5 0 -5 
C -1.326016 -5 -2.597899 -4.473168 -3.535534 -3.535534 
C -4.473168 -2.597899 -5 -1.326016 -5 0 
C -5 1.326016 -4.473168 2.597899 -3.535534 3.535534 
C -2.597899 4.473168 -1.326016 5 0 5 
z
" style="stroke: #ffffff"/>
    </defs>
    <g>
     <use xlink:href="#m55676723ca" x="734.379687" y="411.7175" style="fill: #4c72b0; stroke: #ffffff"/>
    </g>
   </g>
   <g id="text_12">
    <!-- Reordered -->
    <g style="fill: #262626" transform="translate(759.579687 416.6175) scale(0.14 -0.14)">
     <use xlink:href="#ArialMT-52"/>
     <use xlink:href="#ArialMT-65" x="72.216797"/>
     <use xlink:href="#ArialMT-6f" x="127.832031"/>
     <use xlink:href="#ArialMT-72" x="183.447266"/>
     <use xlink:href="#ArialMT-64" x="216.748047"/>
     <use xlink:href="#ArialMT-65" x="272.363281"/>
     <use xlink:href="#ArialMT-72" x="327.978516"/>
     <use xlink:href="#ArialMT-65" x="361.279297"/>
     <use xlink:href="#ArialMT-64" x="416.894531"/>
    </g>
   </g>
  </g>
 </g>
</svg>
